<svg viewBox="0 0 185 185" fill="none" xmlns="http://www.w3.org/2000/svg">
    <path
        d="M38.1769 177.997L91.2176 80.7558C91.75 79.7808 93.1498 79.7808 93.6822 80.7558L146.723 177.997C147.352 179.152 146.191 180.461 144.969 179.973L102.527 162.996C102.079 162.816 101.754 162.419 101.668 161.944L93.831 118.84C93.5512 117.304 91.3486 117.304 91.0689 118.84L83.2317 161.944C83.1456 162.419 82.8209 162.816 82.3727 162.996L39.9303 179.973C38.709 180.461 37.5471 179.152 38.1769 177.997Z"
        fill="#425CC7" />
    <path
        d="M64.3797 69.1403V14.1294C64.3797 13.7127 64.8837 13.504 65.1784 13.7987L119.721 68.3418C120.016 68.6364 120.52 68.4276 120.52 68.0109V13"
        stroke="#F5A800" stroke-width="18.7134" stroke-linecap="round" />
</svg>
